<svg
   xmlns="http://www.w3.org/2000/svg"
   id="svg4"
   version="1.1"
   viewBox="0 -2 16 18"
   class="bi bi-heart"
   fill="#ffffff"
   height="16"
   width="16">
  <path
     style="fill:#ed4956;fill-opacity:1;fill-rule:nonzero"
     id="path2"
     d="m 8.1525424,7.1717288 v 0 c -1.683,-1.73 1.114,-2.175 0,0 -1.5145255,1.7857119 -1.1075424,-2.1900847 0,0 1.5301695,1.8912712 -3.452,-2.368 0,0 3.4519996,-2.368 -0.921,1.815 0,0 0.955,-1.886 0.524,1.023 0,0 -1.114,-2.175 1.683,-1.73 0,0 z M 8,15 C -7.333,4.868 3.279,-3.04 7.824,1.143 7.884,1.198 7.943,1.255 8,1.314 8.0564211,1.2550537 8.1151329,1.1983434 8.176,1.144 12.72,-3.042 23.333,4.867 8,15 Z" />
</svg>
